<?xml version="1.0" encoding="UTF-8" standalone="no"?>
<!-- Created with Inkscape (http://www.inkscape.org/) -->

<svg
   xmlns:dc="http://purl.org/dc/elements/1.1/"
   xmlns:cc="http://creativecommons.org/ns#"
   xmlns:rdf="http://www.w3.org/1999/02/22-rdf-syntax-ns#"
   xmlns:svg="http://www.w3.org/2000/svg"
   xmlns="http://www.w3.org/2000/svg"
   xmlns:sodipodi="http://sodipodi.sourceforge.net/DTD/sodipodi-0.dtd"
   xmlns:inkscape="http://www.inkscape.org/namespaces/inkscape"
   width="64px"
   height="64px"
   id="svg2985"
   version="1.1"
   inkscape:version="0.48.4 r9939"
   sodipodi:docname="vgio_pause7.svg">
  <defs
     id="defs2987" />
  <sodipodi:namedview
     id="base"
     pagecolor="#ffffff"
     bordercolor="#666666"
     borderopacity="1.0"
     inkscape:pageopacity="0.0"
     inkscape:pageshadow="2"
     inkscape:zoom="7.7781746"
     inkscape:cx="26.305188"
     inkscape:cy="33.206508"
     inkscape:current-layer="layer1"
     showgrid="true"
     inkscape:document-units="px"
     inkscape:grid-bbox="true"
     inkscape:window-width="1855"
     inkscape:window-height="1056"
     inkscape:window-x="1431"
     inkscape:window-y="24"
     inkscape:window-maximized="1" />
  <metadata
     id="metadata2990">
    <rdf:RDF>
      <cc:Work
         rdf:about="">
        <dc:format>image/svg+xml</dc:format>
        <dc:type
           rdf:resource="http://purl.org/dc/dcmitype/StillImage" />
        <dc:title></dc:title>
      </cc:Work>
    </rdf:RDF>
  </metadata>
  <g
     id="layer1"
     inkscape:label="Layer 1"
     inkscape:groupmode="layer">
    <path
       inkscape:connector-curvature="0"
       id="path4434"
       style="font-size:33.22164917px;font-style:normal;font-weight:normal;line-height:125%;letter-spacing:0px;word-spacing:0px;fill:#000000;fill-opacity:1;stroke:none;font-family:Sans"
       d="m 6.8844626,15.999999 c -1.3399035,2.690084 -2.3348248,5.3509 -2.9847668,7.982457 -0.6499551,2.631595 -0.9749294,5.29826 -0.9749239,8 -5.5e-6,2.701763 0.3249688,5.380123 0.9749239,8.035088 0.6599412,2.643275 1.6548625,5.304091 2.9847668,7.982455 l -2.3998125,0 C 2.9847617,45.25146 1.8598506,42.549708 1.1099137,39.894737 0.36996853,37.239772 -2.1988977e-6,34.602347 4.4089603e-7,31.982456 -2.1988977e-6,29.374283 0.36996853,26.748554 1.1099137,24.105263 1.8498514,21.46201 2.9747624,18.760258 4.4846501,15.999999 l 2.3998125,0" />
    <path
       inkscape:connector-curvature="0"
       id="path4438"
       style="font-size:33.22164917px;font-style:normal;font-weight:normal;line-height:125%;letter-spacing:0px;word-spacing:0px;fill:#000000;fill-opacity:1;stroke:none;font-family:Sans"
       d="m 57.11554,15.999999 2.399812,0 c 1.499877,2.760259 2.619788,5.462011 3.359738,8.105264 0.749932,2.643291 1.124902,5.26902 1.124912,7.877193 -10e-6,2.619891 -0.37498,5.257316 -1.124912,7.912281 -0.73995,2.654971 -1.859861,5.356723 -3.359738,8.105262 l -2.399812,0 c 1.329892,-2.678364 2.319813,-5.33918 2.969768,-7.982455 0.659942,-2.654965 0.989916,-5.333325 0.989922,-8.035088 -6e-6,-2.70174 -0.32998,-5.368405 -0.989922,-8 -0.649955,-2.631557 -1.639876,-5.292373 -2.969768,-7.982457" />
    <g
       style="font-size:40px;font-style:normal;font-weight:normal;line-height:125%;letter-spacing:0px;word-spacing:0px;fill:#000000;fill-opacity:1;stroke:none;font-family:Sans"
       id="flowRoot4443"
       transform="matrix(0.83155455,0,0,0.6,8.7976793,12.280364)">
      <path
         d="m 22.804687,12.86606 0,40 -3.320312,0 0,-40 3.320312,0"
         id="path4452"
         inkscape:connector-curvature="0" />
      <path
         d="m 36.320312,12.86606 0,40 -3.320312,0 0,-40 3.320312,0"
         id="path4454"
         inkscape:connector-curvature="0" />
    </g>
  </g>
</svg>
